<?xml version="1.0" encoding="UTF-8" standalone="no"?>
<svg
   id="svg39"
   version="1.1"
   viewBox="0 0 300 120"
   height="120mm"
   width="300mm"
   sodipodi:docname="encoding_online.svg"
   inkscape:version="1.1 (c4e8f9e, 2021-05-24)"
   xmlns:inkscape="http://www.inkscape.org/namespaces/inkscape"
   xmlns:sodipodi="http://sodipodi.sourceforge.net/DTD/sodipodi-0.dtd"
   xmlns="http://www.w3.org/2000/svg"
   xmlns:svg="http://www.w3.org/2000/svg"
   xmlns:rdf="http://www.w3.org/1999/02/22-rdf-syntax-ns#"
   xmlns:cc="http://creativecommons.org/ns#"
   xmlns:dc="http://purl.org/dc/elements/1.1/">
  <sodipodi:namedview
     pagecolor="#ffffff"
     bordercolor="#666666"
     borderopacity="1"
     objecttolerance="10"
     gridtolerance="10"
     guidetolerance="10"
     inkscape:pageopacity="0"
     inkscape:pageshadow="2"
     inkscape:window-width="1438"
     inkscape:window-height="714"
     id="namedview137"
     showgrid="false"
     inkscape:zoom="0.5"
     inkscape:cx="474"
     inkscape:cy="168"
     inkscape:window-x="0"
     inkscape:window-y="25"
     inkscape:window-maximized="0"
     inkscape:current-layer="g18808"
     inkscape:pagecheckerboard="0"
     inkscape:document-units="mm" />
  <defs
     id="defs33">
    <inkscape:path-effect
       effect="simplify"
       id="path-effect1111"
       is_visible="true"
       steps="1"
       threshold="0.0142857"
       smooth_angles="360"
       helper_size="0"
       simplify_individual_paths="false"
       simplify_just_coalesce="false"
       simplifyindividualpaths="false"
       simplifyJustCoalesce="false" />
    <inkscape:path-effect
       effect="simplify"
       id="path-effect1107"
       is_visible="true"
       steps="1"
       threshold="0.0142857"
       smooth_angles="360"
       helper_size="0"
       simplify_individual_paths="false"
       simplify_just_coalesce="false"
       simplifyindividualpaths="false"
       simplifyJustCoalesce="false" />
    <inkscape:path-effect
       effect="simplify"
       id="path-effect1103"
       is_visible="true"
       steps="1"
       threshold="0.0142857"
       smooth_angles="360"
       helper_size="0"
       simplify_individual_paths="false"
       simplify_just_coalesce="false"
       simplifyindividualpaths="false"
       simplifyJustCoalesce="false" />
    <inkscape:path-effect
       effect="simplify"
       id="path-effect1099"
       is_visible="true"
       steps="1"
       threshold="0.0142857"
       smooth_angles="360"
       helper_size="0"
       simplify_individual_paths="false"
       simplify_just_coalesce="false"
       simplifyindividualpaths="false"
       simplifyJustCoalesce="false" />
    <inkscape:path-effect
       effect="simplify"
       id="path-effect1095"
       is_visible="true"
       steps="1"
       threshold="0.00961538"
       smooth_angles="360"
       helper_size="0"
       simplify_individual_paths="false"
       simplify_just_coalesce="false"
       simplifyindividualpaths="false"
       simplifyJustCoalesce="false" />
    <inkscape:path-effect
       effect="simplify"
       id="path-effect1087"
       is_visible="true"
       steps="1"
       threshold="0.075"
       smooth_angles="360"
       helper_size="0"
       simplify_individual_paths="false"
       simplify_just_coalesce="false"
       simplifyindividualpaths="false"
       simplifyJustCoalesce="false" />
    <inkscape:path-effect
       effect="simplify"
       id="path-effect1083"
       is_visible="true"
       steps="1"
       threshold="0.075"
       smooth_angles="360"
       helper_size="0"
       simplify_individual_paths="false"
       simplify_just_coalesce="false"
       simplifyindividualpaths="false"
       simplifyJustCoalesce="false" />
    <inkscape:path-effect
       effect="simplify"
       id="path-effect1079"
       is_visible="true"
       steps="1"
       threshold="0.135714"
       smooth_angles="360"
       helper_size="0"
       simplify_individual_paths="false"
       simplify_just_coalesce="false"
       simplifyindividualpaths="false"
       simplifyJustCoalesce="false" />
    <inkscape:path-effect
       effect="simplify"
       id="path-effect1075"
       is_visible="true"
       steps="1"
       threshold="0.5"
       smooth_angles="360"
       helper_size="0"
       simplify_individual_paths="false"
       simplify_just_coalesce="false"
       simplifyindividualpaths="false"
       simplifyJustCoalesce="false" />
    <inkscape:path-effect
       effect="simplify"
       id="path-effect1071"
       is_visible="true"
       steps="1"
       threshold="0.5"
       smooth_angles="360"
       helper_size="0"
       simplify_individual_paths="false"
       simplify_just_coalesce="false"
       simplifyindividualpaths="false"
       simplifyJustCoalesce="false" />
    <inkscape:path-effect
       effect="simplify"
       id="path-effect1067"
       is_visible="true"
       steps="1"
       threshold="0.021875"
       smooth_angles="360"
       helper_size="0"
       simplify_individual_paths="false"
       simplify_just_coalesce="false"
       simplifyindividualpaths="false"
       simplifyJustCoalesce="false" />
    <inkscape:path-effect
       effect="simplify"
       id="path-effect1051"
       is_visible="true"
       steps="1"
       threshold="0.021875"
       smooth_angles="360"
       helper_size="0"
       simplify_individual_paths="false"
       simplify_just_coalesce="false"
       simplifyindividualpaths="false"
       simplifyJustCoalesce="false" />
    <inkscape:path-effect
       effect="simplify"
       id="path-effect1047"
       is_visible="true"
       steps="1"
       threshold="0.021875"
       smooth_angles="360"
       helper_size="0"
       simplify_individual_paths="false"
       simplify_just_coalesce="false"
       simplifyindividualpaths="false"
       simplifyJustCoalesce="false" />
    <inkscape:path-effect
       effect="simplify"
       id="path-effect1043"
       is_visible="true"
       steps="1"
       threshold="0.021875"
       smooth_angles="360"
       helper_size="0"
       simplify_individual_paths="false"
       simplify_just_coalesce="false"
       simplifyindividualpaths="false"
       simplifyJustCoalesce="false" />
    <inkscape:path-effect
       effect="simplify"
       id="path-effect1039"
       is_visible="true"
       steps="1"
       threshold="0.021875"
       smooth_angles="360"
       helper_size="0"
       simplify_individual_paths="false"
       simplify_just_coalesce="false"
       simplifyindividualpaths="false"
       simplifyJustCoalesce="false" />
    <inkscape:path-effect
       effect="simplify"
       id="path-effect1035"
       is_visible="true"
       steps="1"
       threshold="0.0202394"
       smooth_angles="360"
       helper_size="0"
       simplify_individual_paths="false"
       simplify_just_coalesce="false"
       simplifyindividualpaths="false"
       simplifyJustCoalesce="false" />
    <inkscape:path-effect
       effect="simplify"
       id="path-effect1031"
       is_visible="true"
       steps="1"
       threshold="0.0202394"
       smooth_angles="360"
       helper_size="0"
       simplify_individual_paths="false"
       simplify_just_coalesce="false"
       simplifyindividualpaths="false"
       simplifyJustCoalesce="false" />
    <inkscape:path-effect
       effect="spiro"
       id="path-effect1027"
       is_visible="true" />
    <inkscape:path-effect
       effect="simplify"
       id="path-effect1025"
       is_visible="true"
       steps="1"
       threshold="0.0202394"
       smooth_angles="360"
       helper_size="0"
       simplify_individual_paths="false"
       simplify_just_coalesce="false"
       simplifyindividualpaths="false"
       simplifyJustCoalesce="false" />
    <inkscape:path-effect
       effect="simplify"
       id="path-effect1015"
       is_visible="true"
       steps="1"
       threshold="0.0202394"
       smooth_angles="360"
       helper_size="0"
       simplify_individual_paths="false"
       simplify_just_coalesce="false"
       simplifyindividualpaths="false"
       simplifyJustCoalesce="false" />
    <marker
       inkscape:stockid="Arrow2Mend"
       orient="auto"
       refY="0.0"
       refX="0.0"
       id="Arrow2Mend"
       style="overflow:visible;"
       inkscape:isstock="true">
      <path
         id="path995"
         style="fill-rule:evenodd;stroke-width:0.625;stroke-linejoin:round;stroke:#000000;stroke-opacity:1;fill:#000000;fill-opacity:1"
         d="M 8.7185878,4.0337352 L -2.2072895,0.016013256 L 8.7185884,-4.0017078 C 6.9730900,-1.6296469 6.9831476,1.6157441 8.7185878,4.0337352 z "
         transform="scale(0.6) rotate(180) translate(0,0)" />
    </marker>
  </defs>
  <metadata
     id="metadata36">
    <rdf:RDF>
      <cc:Work
         rdf:about="">
        <dc:format>image/svg+xml</dc:format>
        <dc:type
           rdf:resource="http://purl.org/dc/dcmitype/StillImage" />
      </cc:Work>
    </rdf:RDF>
  </metadata>
  <g
     transform="translate(0,-177)"
     id="layer1">
    <g
       transform="translate(-8.9958336,1.0076858)"
       id="g3686">
      <g
         transform="translate(5.9531286)"
         id="g3851">
        <g
           id="g972">
          <g
             transform="translate(165.79897,-8.6389053)"
             id="g1321"
             style="fill:#74b9ff;fill-opacity:1">
            <g
               id="g1564"
               transform="matrix(1.0833698,0,0,1.0833698,-22.727463,-20.394854)">
              <g
                 id="g14988"
                 transform="translate(28.179288,1.6745459)">
                <text
                   xml:space="preserve"
                   style="font-size:3.90756px;line-height:1.25;font-family:sans-serif;stroke-width:0.244223"
                   x="-99.753349"
                   y="284.97189"
                   id="text4434"><tspan
                     sodipodi:role="line"
                     id="tspan4432"
                     style="stroke-width:0.244223" /></text>
                <g
                   id="g18808"
                   transform="translate(92.804568)">
                  <g
                     id="g31481"
                     transform="translate(-0.15799605,0.5823919)">
                    <path
                       id="path3949"
                       style="fill:#b4b4b4;fill-opacity:1;stroke:#000000;stroke-width:0.431804;stroke-linecap:round;stroke-linejoin:round;stroke-miterlimit:6.43902;stroke-dasharray:none;stroke-dashoffset:15.1181;stroke-opacity:1"
                       d="m -124.69538,199.11653 c -0.39572,0 -0.71439,0.41311 -0.71439,0.92639 v 7.43791 h 27.259572 v -7.43791 c 0,-0.51328 -0.31866,-0.92639 -0.71439,-0.92639 z" />
                    <text
                       xml:space="preserve"
                       style="font-size:3.90756px;line-height:1.25;font-family:sans-serif;fill:#74b9ff;fill-opacity:1;stroke-width:0.244223"
                       x="-111.84962"
                       y="204.71631"
                       id="text2063"><tspan
                         sodipodi:role="line"
                         style="font-weight:bold;font-size:3.90756px;text-align:center;text-anchor:middle;fill:#000000;fill-opacity:1;stroke-width:0.244223"
                         x="-111.84962"
                         y="204.71631"
                         id="tspan2061">Server</tspan></text>
                    <g
                       id="g1153"
                       transform="matrix(0.03767374,0,0,0.03767534,-216.16936,213.10237)"
                       style="fill:#000000;fill-opacity:1;stroke:none;stroke-opacity:1">
                      <path
                         d="m 199.9,307.1 h -83.3 c -56.3,0 -101,44.8 -102.1,100.1 -3.1,16.7 -7.3,45.9 3.1,56.3 28.1,27.1 91.7,37.5 140.6,37.5 50,0 112.5,-10.4 140.6,-37.5 10.4,-10.4 6.3,-39.6 3.1,-56.3 -0.9,-55.3 -46.7,-100.1 -102,-100.1 z m 85.5,140.7 c -19.8,19.8 -68.8,32.3 -126,32.3 -57.3,0 -107.3,-12.5 -126,-31.3 -2.1,-4.2 -12.1,-117.3 83.3,-122 21.7,-1.1 84.4,0 84.4,0 93.5,0.1 86.4,117.9 84.3,121 z"
                         id="path1143"
                         style="fill:#000000;fill-opacity:1;stroke:none;stroke-opacity:1" />
                      <path
                         d="m 157.2,288.3 c 45.8,0 83.3,-37.5 82.3,-82.4 0,-45.9 -36.5,-82.4 -82.3,-82.4 -44.8,0 -82.3,37.5 -82.3,82.4 0,45.9 36.5,82.4 82.3,82.4 z m 0,-143.9 c 34.4,0 62.5,28.1 62.5,61.5 0,33.4 -28.1,61.5 -62.5,61.5 -34.4,0 -62.5,-28.1 -62.5,-61.5 0,-33.4 28.2,-61.5 62.5,-61.5 z"
                         id="path1145"
                         style="fill:#000000;fill-opacity:1;stroke:none;stroke-opacity:1" />
                      <path
                         d="m 253.1,11 v 151.2 h 32.3 v 74 l 74,-74 H 501 V 11 Z M 481.2,142.4 H 352 l -45.8,45.9 V 142.4 H 273.9 V 31.9 h 207.3 z"
                         id="path1147"
                         style="fill:#000000;fill-opacity:1;stroke:none;stroke-opacity:1" />
                      <path
                         d="m 375,61 c 1,-2.1 3.1,-3.1 5.2,-3.1 2.1,0 4.2,1 4.2,1 1,2.1 2.1,4.2 2.1,6.3 0,3.1 -1,5.2 -2.1,6.3 l -8.3,9.4 c -2.1,3.1 -4.2,5.2 -5.2,7.3 -1,2.1 -1,5.2 -1,8.3 v 9.4 h 18.8 v -8.3 c 0,-2.1 0,-4.2 1,-5.2 1,-1 2.1,-2.1 4.2,-4.2 2.1,-2.1 4.2,-4.2 6.3,-6.3 0,-1 1,-2.1 2.1,-3.1 1,-1 2.1,-2.1 2.1,-3.1 1,0 1,-1 2.1,-3.1 1,-1 1,-4.2 1,-7.3 0,-7.3 -2.1,-13.6 -7.3,-17.7 -5.2,-4.2 -11.5,-6.3 -19.8,-6.3 -7.3,0 -14.6,2.1 -19.8,7.3 -5.2,4.2 -8.3,11.5 -9.4,19.8 H 372 c 0.9,-3.2 1.9,-5.3 3,-7.4 z"
                         id="path1149"
                         style="fill:#000000;fill-opacity:1;stroke:none;stroke-opacity:1" />
                      <path
                         d="m 380.2,110 c -3.1,0 -6.3,1 -8.3,3.1 -2.1,2.1 -3.1,5.2 -3.1,8.3 0,3.1 1,6.3 3.1,8.3 2.1,2.1 4.2,3.1 8.3,3.1 3.1,0 6.3,-1 8.3,-3.1 2.1,-2.1 3.1,-5.2 3.1,-8.3 0,-3.1 -1,-6.3 -3.1,-8.3 -2.1,-2 -5.2,-3.1 -8.3,-3.1 z"
                         id="path1151"
                         style="fill:#000000;fill-opacity:1;stroke:none;stroke-opacity:1" />
                    </g>
                    <g
                       id="g1578"
                       transform="matrix(0.24422255,0,0,0.24422255,-132.3598,203.26441)">
                      <g
                         id="g1500"
                         style="fill:#000000;fill-opacity:1;stroke:none;stroke-opacity:1"
                         transform="matrix(1.2598425,0,0,1.2811089,46.669047,41.341719)">
	<path
   d="m 55.849,47.834 c -0.429,-4.107 -3.852,-7.332 -7.953,-7.332 -2.564,0 -4.984,1.286 -6.48,3.402 -0.291,-0.051 -0.586,-0.076 -0.883,-0.076 -2.32,0 -4.381,1.577 -5.066,3.813 -1.907,1.131 -3.116,3.241 -3.116,5.502 0,3.507 2.785,6.359 6.208,6.359 h 10.774 c 0.06,0 0.118,-0.004 0.171,-0.008 0.062,0.004 0.124,0.008 0.188,0.008 h 4.31 c 3.225,0 5.849,-2.687 5.849,-5.989 -10e-4,-2.6 -1.643,-4.873 -4.002,-5.679 z m -1.848,9.668 -4.352,-0.003 -0.17,-0.006 -10.922,0.009 c -2.32,0 -4.208,-1.956 -4.208,-4.359 0,-1.665 0.949,-3.21 2.417,-3.935 l 0.435,-0.214 0.102,-0.475 c 0.331,-1.56 1.689,-2.691 3.229,-2.691 0.345,0 0.688,0.057 1.02,0.168 l 0.777,0.261 0.408,-0.711 c 1.096,-1.906 3.024,-3.044 5.158,-3.044 3.265,0 5.955,2.747 5.998,6.123 l 0.011,0.813 0.799,0.155 c 1.823,0.354 3.146,2.002 3.146,3.919 0.001,2.2 -1.726,3.99 -3.848,3.99 z"
   id="path1450"
   style="fill:#000000;fill-opacity:1;stroke:none;stroke-opacity:1" />

	<path
   d="m 10.5,6.498 c -2.481,0 -4.5,2.019 -4.5,4.5 0,2.481 2.019,4.5 4.5,4.5 2.481,0 4.5,-2.019 4.5,-4.5 0,-2.481 -2.019,-4.5 -4.5,-4.5 z m 0,7 c -1.379,0 -2.5,-1.121 -2.5,-2.5 0,-1.379 1.121,-2.5 2.5,-2.5 1.379,0 2.5,1.121 2.5,2.5 0,1.379 -1.121,2.5 -2.5,2.5 z"
   id="path1452"
   style="fill:#000000;fill-opacity:1;stroke:none;stroke-opacity:1" />

	<circle
   cx="50"
   cy="9.4980001"
   r="1"
   id="circle1454"
   style="fill:#000000;fill-opacity:1;stroke:none;stroke-opacity:1" />

	<circle
   cx="46"
   cy="9.4980001"
   r="1"
   id="circle1456"
   style="fill:#000000;fill-opacity:1;stroke:none;stroke-opacity:1" />

	<circle
   cx="52"
   cy="12.498"
   r="1"
   id="circle1458"
   style="fill:#000000;fill-opacity:1;stroke:none;stroke-opacity:1" />

	<circle
   cx="48"
   cy="12.498"
   r="1"
   id="circle1460"
   style="fill:#000000;fill-opacity:1;stroke:none;stroke-opacity:1" />

	<circle
   cx="42"
   cy="9.4980001"
   r="1"
   id="circle1462"
   style="fill:#000000;fill-opacity:1;stroke:none;stroke-opacity:1" />

	<circle
   cx="44"
   cy="12.498"
   r="1"
   id="circle1464"
   style="fill:#000000;fill-opacity:1;stroke:none;stroke-opacity:1" />

	<circle
   cx="38"
   cy="9.4980001"
   r="1"
   id="circle1466"
   style="fill:#000000;fill-opacity:1;stroke:none;stroke-opacity:1" />

	<circle
   cx="40"
   cy="12.498"
   r="1"
   id="circle1468"
   style="fill:#000000;fill-opacity:1;stroke:none;stroke-opacity:1" />

	<circle
   cx="34"
   cy="9.4980001"
   r="1"
   id="circle1470"
   style="fill:#000000;fill-opacity:1;stroke:none;stroke-opacity:1" />

	<circle
   cx="36"
   cy="12.498"
   r="1"
   id="circle1472"
   style="fill:#000000;fill-opacity:1;stroke:none;stroke-opacity:1" />

	<path
   d="M 60,16.89 V 5.106 C 60,2.565 57.933,0.498 55.392,0.498 H 4.608 C 2.067,0.498 0,2.565 0,5.106 V 16.89 c 0,1.469 0.703,2.764 1.777,3.608 C 0.703,21.343 0,22.638 0,24.106 V 35.89 c 0,1.469 0.703,2.764 1.777,3.608 C 0.703,40.343 0,41.638 0,43.106 V 54.89 c 0,2.541 2.067,4.608 4.608,4.608 H 28 v -2 H 4.608 C 3.17,57.498 2,56.328 2,54.89 V 43.106 C 2,41.668 3.17,40.498 4.608,40.498 H 38 v -2 H 4.608 C 3.17,38.498 2,37.328 2,35.89 V 24.106 c 0,-1.438 1.17,-2.608 2.608,-2.608 h 50.783 c 1.438,0 2.608,1.17 2.608,2.608 v 14.392 h 2 V 24.106 c 0,-1.469 -0.703,-2.764 -1.777,-3.608 C 59.297,19.653 60,18.358 60,16.89 Z M 4.608,19.498 C 3.17,19.498 2,18.328 2,16.89 V 5.106 C 2,3.668 3.17,2.498 4.608,2.498 H 55.391 C 56.83,2.498 58,3.668 58,5.106 V 16.89 c 0,1.438 -1.17,2.608 -2.608,2.608 z"
   id="path1474"
   style="fill:#000000;fill-opacity:1;stroke:none;stroke-opacity:1" />

	<path
   d="m 6,29.998 c 0,2.481 2.019,4.5 4.5,4.5 2.481,0 4.5,-2.019 4.5,-4.5 0,-2.481 -2.019,-4.5 -4.5,-4.5 -2.481,0 -4.5,2.019 -4.5,4.5 z m 7,0 c 0,1.379 -1.121,2.5 -2.5,2.5 -1.379,0 -2.5,-1.121 -2.5,-2.5 0,-1.379 1.121,-2.5 2.5,-2.5 1.379,0 2.5,1.121 2.5,2.5 z"
   id="path1476"
   style="fill:#000000;fill-opacity:1;stroke:none;stroke-opacity:1" />

	<circle
   cx="50"
   cy="28.497999"
   r="1"
   id="circle1478"
   style="fill:#000000;fill-opacity:1;stroke:none;stroke-opacity:1" />

	<circle
   cx="46"
   cy="28.497999"
   r="1"
   id="circle1480"
   style="fill:#000000;fill-opacity:1;stroke:none;stroke-opacity:1" />

	<circle
   cx="52"
   cy="31.497999"
   r="1"
   id="circle1482"
   style="fill:#000000;fill-opacity:1;stroke:none;stroke-opacity:1" />

	<circle
   cx="48"
   cy="31.497999"
   r="1"
   id="circle1484"
   style="fill:#000000;fill-opacity:1;stroke:none;stroke-opacity:1" />

	<circle
   cx="42"
   cy="28.497999"
   r="1"
   id="circle1486"
   style="fill:#000000;fill-opacity:1;stroke:none;stroke-opacity:1" />

	<circle
   cx="44"
   cy="31.497999"
   r="1"
   id="circle1488"
   style="fill:#000000;fill-opacity:1;stroke:none;stroke-opacity:1" />

	<circle
   cx="38"
   cy="28.497999"
   r="1"
   id="circle1490"
   style="fill:#000000;fill-opacity:1;stroke:none;stroke-opacity:1" />

	<circle
   cx="40"
   cy="31.497999"
   r="1"
   id="circle1492"
   style="fill:#000000;fill-opacity:1;stroke:none;stroke-opacity:1" />

	<circle
   cx="34"
   cy="28.497999"
   r="1"
   id="circle1494"
   style="fill:#000000;fill-opacity:1;stroke:none;stroke-opacity:1" />

	<circle
   cx="36"
   cy="31.497999"
   r="1"
   id="circle1496"
   style="fill:#000000;fill-opacity:1;stroke:none;stroke-opacity:1" />

	<path
   d="m 6,48.998 c 0,2.481 2.019,4.5 4.5,4.5 2.481,0 4.5,-2.019 4.5,-4.5 0,-2.481 -2.019,-4.5 -4.5,-4.5 -2.481,0 -4.5,2.019 -4.5,4.5 z m 7,0 c 0,1.379 -1.121,2.5 -2.5,2.5 -1.379,0 -2.5,-1.121 -2.5,-2.5 0,-1.379 1.121,-2.5 2.5,-2.5 1.379,0 2.5,1.121 2.5,2.5 z"
   id="path1498"
   style="fill:#000000;fill-opacity:1;stroke:none;stroke-opacity:1" />

</g>
                      <g
                         id="g1502">
</g>
                      <g
                         id="g1504">
</g>
                      <g
                         id="g1506">
</g>
                      <g
                         id="g1508">
</g>
                      <g
                         id="g1510">
</g>
                      <g
                         id="g1512">
</g>
                      <g
                         id="g1514">
</g>
                      <g
                         id="g1516">
</g>
                      <g
                         id="g1518">
</g>
                      <g
                         id="g1520">
</g>
                      <g
                         id="g1522">
</g>
                      <g
                         id="g1524">
</g>
                      <g
                         id="g1526">
</g>
                      <g
                         id="g1528">
</g>
                      <g
                         id="g1530">
</g>
                    </g>
                    <g
                       id="g1720"
                       transform="matrix(0.65946997,0,0,0.77147394,-27.270221,210.40367)"
                       style="fill:none;fill-opacity:1;stroke:#000000;stroke-width:1.03527;stroke-miterlimit:4;stroke-dasharray:none;stroke-opacity:1">
                      <rect
                         x="3"
                         y="5"
                         class="st0"
                         width="26"
                         height="22"
                         id="rect1699"
                         style="fill:none;fill-opacity:1;stroke:#000000;stroke-width:1.03527;stroke-miterlimit:4;stroke-dasharray:none;stroke-opacity:1" />
                      <line
                         class="st0"
                         x1="13"
                         y1="8"
                         x2="13"
                         y2="8"
                         id="line1701"
                         style="fill:none;fill-opacity:1;stroke:#000000;stroke-width:1.03527;stroke-miterlimit:4;stroke-dasharray:none;stroke-opacity:1" />
                      <line
                         class="st0"
                         x1="10"
                         y1="8"
                         x2="10"
                         y2="8"
                         id="line1703"
                         style="fill:none;fill-opacity:1;stroke:#000000;stroke-width:1.03527;stroke-miterlimit:4;stroke-dasharray:none;stroke-opacity:1" />
                      <line
                         class="st0"
                         x1="7"
                         y1="8"
                         x2="7"
                         y2="8"
                         id="line1705"
                         style="fill:none;fill-opacity:1;stroke:#000000;stroke-width:1.03527;stroke-miterlimit:4;stroke-dasharray:none;stroke-opacity:1" />
                      <line
                         class="st0"
                         x1="3"
                         y1="11"
                         x2="29"
                         y2="11"
                         id="line1707"
                         style="fill:none;fill-opacity:1;stroke:#000000;stroke-width:1.03527;stroke-miterlimit:4;stroke-dasharray:none;stroke-opacity:1" />
                    </g>
                    <g
                       id="g1994"
                       transform="matrix(0.36921834,0,0,0.33565304,-74.220715,253.93562)"
                       style="fill:#000000;fill-opacity:1">
                      <path
                         d="M 52.354,8.51 C 51.196,4.22 42.577,0 27.5,0 12.423,0 3.803,4.22 2.646,8.51 2.562,8.657 2.5,8.818 2.5,9 V 9.5 21 21.5 22 33 33.5 34 46 c 0,0.162 0.043,0.315 0.117,0.451 C 3.798,51.346 14.364,55 27.5,55 40.606,55 51.155,51.361 52.375,46.484 52.455,46.341 52.5,46.176 52.5,46 V 34 33.5 33 22 21.5 21 9.5 9 c 0,-0.182 -0.062,-0.343 -0.146,-0.49 z m -1.933,25.475 c -0.028,0.121 -0.067,0.241 -0.116,0.363 -0.04,0.099 -0.089,0.198 -0.143,0.297 -0.067,0.123 -0.142,0.246 -0.231,0.369 -0.066,0.093 -0.141,0.185 -0.219,0.277 -0.111,0.131 -0.229,0.262 -0.363,0.392 -0.081,0.079 -0.17,0.157 -0.26,0.236 -0.164,0.143 -0.335,0.285 -0.526,0.426 -0.082,0.061 -0.17,0.12 -0.257,0.18 -0.226,0.156 -0.462,0.311 -0.721,0.463 -0.068,0.041 -0.141,0.08 -0.212,0.12 -0.298,0.168 -0.609,0.335 -0.945,0.497 -0.043,0.021 -0.088,0.041 -0.132,0.061 -0.375,0.177 -0.767,0.351 -1.186,0.519 -0.012,0.005 -0.024,0.009 -0.036,0.014 -2.271,0.907 -5.176,1.67 -8.561,2.17 -0.017,0.002 -0.034,0.004 -0.051,0.007 -0.658,0.097 -1.333,0.183 -2.026,0.259 -0.113,0.012 -0.232,0.02 -0.346,0.032 -0.605,0.063 -1.217,0.121 -1.847,0.167 -0.288,0.021 -0.59,0.031 -0.883,0.049 -0.474,0.028 -0.943,0.059 -1.429,0.076 C 29.137,40.984 28.327,41 27.5,41 26.673,41 25.863,40.984 25.068,40.956 24.582,40.939 24.113,40.907 23.639,40.88 23.346,40.863 23.044,40.852 22.756,40.831 22.126,40.785 21.514,40.727 20.909,40.664 20.795,40.652 20.676,40.644 20.563,40.632 19.87,40.556 19.195,40.469 18.537,40.373 18.52,40.371 18.503,40.369 18.486,40.366 15.101,39.866 12.196,39.103 9.925,38.196 9.913,38.192 9.901,38.187 9.889,38.182 9.47,38.014 9.077,37.84 8.703,37.663 8.66,37.642 8.614,37.622 8.571,37.602 8.235,37.44 7.924,37.274 7.626,37.105 7.556,37.065 7.482,37.026 7.414,36.985 7.155,36.833 6.919,36.678 6.693,36.522 6.607,36.462 6.518,36.403 6.436,36.342 6.245,36.201 6.074,36.059 5.91,35.916 5.821,35.838 5.731,35.76 5.65,35.68 5.516,35.55 5.398,35.42 5.287,35.288 5.209,35.196 5.134,35.104 5.068,35.011 4.98,34.888 4.905,34.765 4.837,34.642 4.783,34.543 4.735,34.444 4.694,34.345 4.645,34.224 4.606,34.103 4.578,33.982 4.541,33.823 4.5,33.661 4.5,33.5 4.5,33.387 4.513,33.274 4.531,33.162 4.556,33.011 4.542,32.86 4.5,32.717 v -7.424 c 0.028,0.026 0.063,0.051 0.092,0.077 0.218,0.192 0.44,0.383 0.69,0.567 C 9.049,28.786 16.582,31 27.5,31 c 10.872,0 18.386,-2.196 22.169,-5.028 0.302,-0.22 0.574,-0.447 0.83,-0.678 L 50.5,25.293 v 7.424 c -0.042,0.143 -0.056,0.294 -0.031,0.445 0.019,0.112 0.031,0.225 0.031,0.338 0,0.161 -0.041,0.323 -0.079,0.485 z M 50.5,13.293 v 7.424 c -0.042,0.143 -0.056,0.294 -0.031,0.445 0.019,0.112 0.031,0.225 0.031,0.338 0,0.161 -0.041,0.323 -0.079,0.485 -0.028,0.121 -0.067,0.241 -0.116,0.363 -0.04,0.099 -0.089,0.198 -0.143,0.297 -0.067,0.123 -0.142,0.246 -0.231,0.369 -0.066,0.093 -0.141,0.185 -0.219,0.277 -0.111,0.131 -0.229,0.262 -0.363,0.392 -0.081,0.079 -0.17,0.157 -0.26,0.236 -0.164,0.143 -0.335,0.285 -0.526,0.426 -0.082,0.061 -0.17,0.12 -0.257,0.18 -0.226,0.156 -0.462,0.311 -0.721,0.463 -0.068,0.041 -0.141,0.08 -0.212,0.12 -0.298,0.168 -0.609,0.335 -0.945,0.497 -0.043,0.021 -0.088,0.041 -0.132,0.061 -0.375,0.177 -0.767,0.351 -1.186,0.519 -0.012,0.005 -0.024,0.009 -0.036,0.014 -2.271,0.907 -5.176,1.67 -8.561,2.17 -0.017,0.002 -0.034,0.004 -0.051,0.007 -0.658,0.097 -1.333,0.183 -2.026,0.259 -0.113,0.012 -0.232,0.02 -0.346,0.032 -0.605,0.063 -1.217,0.121 -1.847,0.167 -0.288,0.021 -0.59,0.031 -0.883,0.049 -0.474,0.028 -0.943,0.059 -1.429,0.076 C 29.137,28.984 28.327,29 27.5,29 26.673,29 25.863,28.984 25.068,28.956 24.582,28.939 24.113,28.907 23.639,28.88 23.346,28.863 23.044,28.852 22.756,28.831 22.126,28.785 21.514,28.727 20.909,28.664 20.795,28.652 20.676,28.644 20.563,28.632 19.87,28.556 19.195,28.469 18.537,28.373 18.52,28.371 18.503,28.369 18.486,28.366 15.101,27.866 12.196,27.103 9.925,26.196 9.913,26.192 9.901,26.187 9.889,26.182 9.47,26.014 9.077,25.84 8.703,25.663 8.66,25.642 8.614,25.622 8.571,25.602 8.235,25.44 7.924,25.274 7.626,25.105 7.556,25.065 7.482,25.026 7.414,24.985 7.155,24.833 6.919,24.678 6.693,24.522 6.607,24.462 6.518,24.403 6.436,24.342 6.245,24.201 6.074,24.059 5.91,23.916 5.821,23.838 5.731,23.76 5.65,23.68 5.516,23.55 5.398,23.42 5.287,23.288 5.209,23.196 5.134,23.104 5.068,23.011 4.98,22.888 4.905,22.765 4.837,22.642 4.783,22.543 4.735,22.444 4.694,22.345 4.645,22.224 4.606,22.103 4.578,21.982 4.541,21.823 4.5,21.661 4.5,21.5 4.5,21.387 4.513,21.274 4.531,21.162 4.556,21.011 4.542,20.86 4.5,20.717 v -7.424 c 0.12,0.109 0.257,0.216 0.387,0.324 0.072,0.06 0.139,0.12 0.215,0.18 0.3,0.236 0.624,0.469 0.975,0.696 0.073,0.047 0.155,0.093 0.231,0.14 0.294,0.183 0.605,0.362 0.932,0.538 0.121,0.065 0.242,0.129 0.367,0.193 0.365,0.186 0.748,0.367 1.151,0.542 0.066,0.029 0.126,0.059 0.193,0.087 0.469,0.199 0.967,0.389 1.485,0.573 0.143,0.051 0.293,0.099 0.44,0.149 0.412,0.139 0.838,0.272 1.279,0.401 0.159,0.046 0.315,0.094 0.478,0.138 0.585,0.162 1.189,0.316 1.823,0.458 0.087,0.02 0.181,0.036 0.269,0.055 0.559,0.122 1.139,0.235 1.735,0.341 0.202,0.036 0.407,0.07 0.613,0.104 0.567,0.093 1.151,0.178 1.75,0.256 0.154,0.02 0.301,0.043 0.457,0.062 0.744,0.09 1.514,0.167 2.305,0.233 0.195,0.016 0.398,0.028 0.596,0.042 0.633,0.046 1.28,0.084 1.942,0.114 0.241,0.011 0.481,0.022 0.727,0.031 0.862,0.029 1.74,0.05 2.65,0.05 0.91,0 1.788,-0.021 2.65,-0.05 0.245,-0.009 0.485,-0.02 0.727,-0.031 0.662,-0.03 1.309,-0.068 1.942,-0.114 0.198,-0.015 0.4,-0.026 0.596,-0.042 0.791,-0.065 1.561,-0.143 2.305,-0.233 0.156,-0.019 0.303,-0.042 0.457,-0.062 0.599,-0.078 1.182,-0.163 1.75,-0.256 0.206,-0.034 0.411,-0.068 0.613,-0.104 0.596,-0.106 1.176,-0.219 1.735,-0.341 0.088,-0.019 0.182,-0.036 0.269,-0.055 0.634,-0.142 1.238,-0.297 1.823,-0.458 0.163,-0.045 0.319,-0.092 0.478,-0.138 0.441,-0.129 0.867,-0.262 1.279,-0.401 0.147,-0.05 0.297,-0.098 0.44,-0.149 0.518,-0.184 1.017,-0.374 1.485,-0.573 0.067,-0.028 0.127,-0.058 0.193,-0.087 0.403,-0.176 0.786,-0.356 1.151,-0.542 0.125,-0.064 0.247,-0.128 0.367,-0.193 0.327,-0.175 0.638,-0.354 0.932,-0.538 0.076,-0.047 0.158,-0.093 0.231,-0.14 0.351,-0.227 0.675,-0.459 0.975,-0.696 0.075,-0.06 0.142,-0.12 0.215,-0.18 0.13,-0.108 0.267,-0.215 0.387,-0.324 z M 27.5,2 c 13.555,0 23,3.952 23,7.5 0,3.548 -9.445,7.5 -23,7.5 C 13.945,17 4.5,13.048 4.5,9.5 4.5,5.952 13.945,2 27.5,2 Z m 23,43.703 c -0.014,0.044 -0.024,0.089 -0.032,0.135 C 49.901,49.297 40.536,53 27.5,53 14.464,53 5.099,49.297 4.532,45.838 4.524,45.793 4.513,45.749 4.5,45.707 v -8.414 c 0.028,0.026 0.063,0.051 0.092,0.077 0.218,0.192 0.44,0.383 0.69,0.567 C 9.049,40.786 16.582,43 27.5,43 c 10.872,0 18.386,-2.196 22.169,-5.028 0.302,-0.22 0.574,-0.447 0.83,-0.678 L 50.5,37.293 Z"
                         id="path1941"
                         style="fill:#000000;fill-opacity:1" />
                      <g
                         id="g1943"
                         style="fill:#000000;fill-opacity:1">
</g>
                      <g
                         id="g1945"
                         style="fill:#000000;fill-opacity:1">
</g>
                      <g
                         id="g1947"
                         style="fill:#000000;fill-opacity:1">
</g>
                      <g
                         id="g1949"
                         style="fill:#000000;fill-opacity:1">
</g>
                      <g
                         id="g1951"
                         style="fill:#000000;fill-opacity:1">
</g>
                      <g
                         id="g1953"
                         style="fill:#000000;fill-opacity:1">
</g>
                      <g
                         id="g1955"
                         style="fill:#000000;fill-opacity:1">
</g>
                      <g
                         id="g1957"
                         style="fill:#000000;fill-opacity:1">
</g>
                      <g
                         id="g1959"
                         style="fill:#000000;fill-opacity:1">
</g>
                      <g
                         id="g1961"
                         style="fill:#000000;fill-opacity:1">
</g>
                      <g
                         id="g1963"
                         style="fill:#000000;fill-opacity:1">
</g>
                      <g
                         id="g1965"
                         style="fill:#000000;fill-opacity:1">
</g>
                      <g
                         id="g1967"
                         style="fill:#000000;fill-opacity:1">
</g>
                      <g
                         id="g1969"
                         style="fill:#000000;fill-opacity:1">
</g>
                      <g
                         id="g1971"
                         style="fill:#000000;fill-opacity:1">
</g>
                    </g>
                    <path
                       id="path5101"
                       style="fill:#b4b4b4;fill-opacity:1;stroke:#000000;stroke-width:0.431804;stroke-linecap:round;stroke-linejoin:round;stroke-miterlimit:6.43902;stroke-dasharray:none;stroke-dashoffset:15.1181;stroke-opacity:1"
                       d="m -219.44067,199.11653 c -0.39572,0 -0.71439,0.41311 -0.71439,0.92639 v 7.43791 h 27.25957 v -7.43791 c 0,-0.51328 -0.31866,-0.92639 -0.71439,-0.92639 z" />
                    <text
                       xml:space="preserve"
                       style="font-size:3.90756px;line-height:1.25;font-family:sans-serif;fill:#74b9ff;fill-opacity:1;stroke-width:0.244223"
                       x="-206.58156"
                       y="204.75447"
                       id="text5105"><tspan
                         sodipodi:role="line"
                         style="font-weight:bold;font-size:3.90756px;text-align:center;text-anchor:middle;fill:#000000;fill-opacity:1;stroke-width:0.244223"
                         x="-206.58156"
                         y="204.75447"
                         id="tspan5103">Client</tspan></text>
                    <path
                       id="path6033"
                       style="fill:#b4b4b4;fill-opacity:1;stroke:#000000;stroke-width:0.431804;stroke-linecap:round;stroke-linejoin:round;stroke-miterlimit:6.43902;stroke-dasharray:none;stroke-dashoffset:15.1181;stroke-opacity:1"
                       d="m -29.634099,199.11653 c -0.39572,0 -0.71439,0.41311 -0.71439,0.92639 v 7.43791 h 27.259575 v -7.43791 c 0,-0.51328 -0.31866,-0.92639 -0.71439,-0.92639 z" />
                    <text
                       xml:space="preserve"
                       style="font-size:2.60504px;line-height:1.25;font-family:sans-serif;fill:#74b9ff;fill-opacity:1;stroke-width:0.244223"
                       x="-16.736509"
                       y="202.63788"
                       id="text6037"><tspan
                         sodipodi:role="line"
                         style="font-weight:bold;font-size:2.60504px;text-align:center;text-anchor:middle;fill:#000000;fill-opacity:1;stroke-width:0.244223"
                         x="-16.736509"
                         y="202.63788"
                         id="tspan6035">Hash</tspan><tspan
                         sodipodi:role="line"
                         style="font-weight:bold;font-size:2.60504px;text-align:center;text-anchor:middle;fill:#000000;fill-opacity:1;stroke-width:0.244223"
                         x="-16.736509"
                         y="205.89418"
                         id="tspan6705">Function</tspan></text>
                    <path
                       id="path10059"
                       style="fill:#b4b4b4;fill-opacity:1;stroke:#000000;stroke-width:0.431804;stroke-linecap:round;stroke-linejoin:round;stroke-miterlimit:6.43902;stroke-dasharray:none;stroke-dashoffset:15.1181;stroke-opacity:1"
                       d="m -76.982608,277.26773 c -0.39572,0 -0.71439,0.41311 -0.71439,0.92639 v 7.43791 h 27.259575 v -7.43791 c 0,-0.51328 -0.31866,-0.92639 -0.71439,-0.92639 z" />
                    <text
                       xml:space="preserve"
                       style="font-size:3.90756px;line-height:1.25;font-family:sans-serif;fill:#74b9ff;fill-opacity:1;stroke-width:0.244223"
                       x="-64.168335"
                       y="282.90472"
                       id="text10063"><tspan
                         sodipodi:role="line"
                         style="font-weight:bold;font-size:3.90756px;text-align:center;text-anchor:middle;fill:#000000;fill-opacity:1;stroke-width:0.244223"
                         x="-64.168335"
                         y="282.90472"
                         id="tspan10061">Database</tspan></text>
                    <g
                       id="g16293"
                       transform="translate(-0.24711615)">
                      <path
                         style="fill:none;stroke:#000000;stroke-width:0.488445;stroke-linecap:round;stroke-linejoin:round;stroke-miterlimit:4;stroke-dasharray:none;stroke-opacity:1;marker-end:url(#Arrow2Mend)"
                         d="m -188.65872,219.00376 h 59.06047"
                         id="path11575" />
                      <text
                         xml:space="preserve"
                         style="font-size:3.90756px;line-height:1.25;font-family:sans-serif;stroke-width:0.244223"
                         x="-177.53958"
                         y="216.88063"
                         id="text12329"><tspan
                           sodipodi:role="line"
                           id="tspan12327"
                           style="font-weight:bold;font-size:3.90756px;fill:#000000;fill-opacity:1;stroke-width:0.244223"
                           x="-177.53958"
                           y="216.88063">1. Shorten a URL</tspan></text>
                    </g>
                    <g
                       id="g16298"
                       transform="translate(2.0096083)">
                      <path
                         style="fill:none;stroke:#000000;stroke-width:0.488445;stroke-linecap:round;stroke-linejoin:round;stroke-miterlimit:4;stroke-dasharray:none;stroke-opacity:1;marker-end:url(#Arrow2Mend)"
                         d="m -95.854169,219.00376 h 59.060482"
                         id="path14857" />
                      <text
                         xml:space="preserve"
                         style="font-size:3.90756px;line-height:1.25;font-family:sans-serif;stroke-width:0.244223"
                         x="-86.138359"
                         y="216.88063"
                         id="text14861"><tspan
                           sodipodi:role="line"
                           id="tspan14859"
                           style="font-weight:bold;font-size:3.90756px;fill:#000000;fill-opacity:1;stroke-width:0.244223"
                           x="-86.138359"
                           y="216.88063">2. Encode the URL</tspan></text>
                    </g>
                    <path
                       style="fill:none;stroke:#000000;stroke-width:0.488445;stroke-linecap:round;stroke-linejoin:round;stroke-miterlimit:4;stroke-dasharray:none;stroke-opacity:1;marker-end:url(#Arrow2Mend)"
                       d="m -15.754361,236.86636 -31.910273,32.2896"
                       id="path16300" />
                    <text
                       xml:space="preserve"
                       style="font-size:3.90756px;line-height:1.25;font-family:sans-serif;stroke-width:0.244223"
                       x="-32.478531"
                       y="260.84067"
                       id="text16304"><tspan
                         sodipodi:role="line"
                         id="tspan16302"
                         style="font-weight:bold;font-size:3.90756px;fill:#000000;fill-opacity:1;stroke-width:0.244223"
                         x="-32.478531"
                         y="260.84067">3. Store the</tspan><tspan
                         sodipodi:role="line"
                         style="font-weight:bold;font-size:3.90756px;fill:#000000;fill-opacity:1;stroke-width:0.244223"
                         x="-32.478531"
                         y="265.72513"
                         id="tspan22795">encoded URL</tspan></text>
                    <path
                       style="fill:none;stroke:#000000;stroke-width:0.488445;stroke-linecap:round;stroke-linejoin:round;stroke-miterlimit:4;stroke-dasharray:none;stroke-opacity:1;marker-end:url(#Arrow2Mend)"
                       d="m -79.252224,269.46672 -31.910266,-32.2896"
                       id="path23821" />
                    <text
                       xml:space="preserve"
                       style="font-size:3.90756px;line-height:1.25;font-family:sans-serif;stroke-width:0.244223"
                       x="-125.28313"
                       y="258.03784"
                       id="text23827"><tspan
                         sodipodi:role="line"
                         style="font-weight:bold;font-size:3.90756px;fill:#000000;fill-opacity:1;stroke-width:0.244223"
                         x="-125.28313"
                         y="258.03784"
                         id="tspan23825">4. Successful</tspan><tspan
                         sodipodi:role="line"
                         style="font-weight:bold;font-size:3.90756px;fill:#000000;fill-opacity:1;stroke-width:0.244223"
                         x="-125.28313"
                         y="262.9223"
                         id="tspan26301">insertion or</tspan><tspan
                         sodipodi:role="line"
                         style="font-weight:bold;font-size:3.90756px;fill:#000000;fill-opacity:1;stroke-width:0.244223"
                         x="-125.28313"
                         y="267.80673"
                         id="tspan26303">error message</tspan></text>
                    <path
                       style="fill:none;stroke:#000000;stroke-width:0.488445;stroke-linecap:round;stroke-linejoin:round;stroke-miterlimit:4;stroke-dasharray:none;stroke-opacity:1;marker-end:url(#Arrow2Mend)"
                       d="m -129.35114,226.33046 h -59.06047"
                       id="path29241" />
                    <text
                       xml:space="preserve"
                       style="font-size:3.90756px;line-height:1.25;font-family:sans-serif;stroke-width:0.244223"
                       x="-175.32254"
                       y="232.02243"
                       id="text29245"><tspan
                         sodipodi:role="line"
                         id="tspan29243"
                         style="font-weight:bold;font-size:3.90756px;fill:#000000;fill-opacity:1;stroke-width:0.244223"
                         x="-175.32254"
                         y="232.02243">5. Return the</tspan><tspan
                         sodipodi:role="line"
                         style="font-weight:bold;font-size:3.90756px;fill:#000000;fill-opacity:1;stroke-width:0.244223"
                         x="-175.32254"
                         y="236.90688"
                         id="tspan30690">shortened URL</tspan></text>
                  </g>
                </g>
              </g>
            </g>
          </g>
        </g>
      </g>
    </g>
  </g>
  <style
     type="text/css"
     id="style1697">
	.st0{fill:none;stroke:#000000;stroke-width:2;stroke-linecap:round;stroke-linejoin:round;stroke-miterlimit:10;}
</style>
</svg>
