<?xml version="1.0" encoding="UTF-8" standalone="no"?>
<svg
   xmlns:dc="http://purl.org/dc/elements/1.1/"
   xmlns:cc="http://creativecommons.org/ns#"
   xmlns:rdf="http://www.w3.org/1999/02/22-rdf-syntax-ns#"
   xmlns:svg="http://www.w3.org/2000/svg"
   xmlns="http://www.w3.org/2000/svg"
   xmlns:xlink="http://www.w3.org/1999/xlink"
   xmlns:sodipodi="http://sodipodi.sourceforge.net/DTD/sodipodi-0.dtd"
   xmlns:inkscape="http://www.inkscape.org/namespaces/inkscape"
   id="svg39"
   version="1.1"
   viewBox="0 0 300 120"
   height="120mm"
   width="300mm"
   sodipodi:docname="hash1.svg"
   inkscape:version="0.92.2 5c3e80d, 2017-08-06">
  <sodipodi:namedview
     pagecolor="#ffffff"
     bordercolor="#666666"
     borderopacity="1"
     objecttolerance="10"
     gridtolerance="10"
     guidetolerance="10"
     inkscape:pageopacity="0"
     inkscape:pageshadow="2"
     inkscape:window-width="1324"
     inkscape:window-height="686"
     id="namedview137"
     showgrid="false"
     inkscape:zoom="0.57935125"
     inkscape:cx="631.27562"
     inkscape:cy="221.77701"
     inkscape:window-x="25"
     inkscape:window-y="57"
     inkscape:window-maximized="0"
     inkscape:current-layer="g1500"
     showguides="false" />
  <defs
     id="defs33">
    <marker
       inkscape:stockid="TriangleOutM"
       orient="auto"
       refY="0.0"
       refX="0.0"
       id="TriangleOutM"
       style="overflow:visible"
       inkscape:isstock="true">
      <path
         id="path1515"
         d="M 5.77,0.0 L -2.88,5.0 L -2.88,-5.0 L 5.77,0.0 z "
         style="fill-rule:evenodd;stroke:#55efc4;stroke-width:1pt;stroke-opacity:1;fill:#55efc4;fill-opacity:1"
         transform="scale(0.4)" />
    </marker>
    <marker
       inkscape:stockid="Arrow1Mend"
       orient="auto"
       refY="0.0"
       refX="0.0"
       id="marker12523"
       style="overflow:visible;"
       inkscape:isstock="true">
      <path
         id="path12521"
         d="M 0.0,0.0 L 5.0,-5.0 L -12.5,0.0 L 5.0,5.0 L 0.0,0.0 z "
         style="fill-rule:evenodd;stroke:#000000;stroke-width:1pt;stroke-opacity:1;fill:#000000;fill-opacity:1"
         transform="scale(0.4) rotate(180) translate(10,0)" />
    </marker>
    <marker
       inkscape:isstock="true"
       style="overflow:visible"
       id="marker12321"
       refX="0.0"
       refY="0.0"
       orient="auto"
       inkscape:stockid="Arrow1Mstart">
      <path
         transform="scale(0.4) translate(10,0)"
         style="fill-rule:evenodd;stroke:#000000;stroke-width:1pt;stroke-opacity:1;fill:#000000;fill-opacity:1"
         d="M 0.0,0.0 L 5.0,-5.0 L -12.5,0.0 L 5.0,5.0 L 0.0,0.0 z "
         id="path12319" />
    </marker>
    <marker
       inkscape:stockid="Arrow1Mend"
       orient="auto"
       refY="0.0"
       refX="0.0"
       id="marker10329"
       style="overflow:visible;"
       inkscape:isstock="true">
      <path
         id="path10327"
         d="M 0.0,0.0 L 5.0,-5.0 L -12.5,0.0 L 5.0,5.0 L 0.0,0.0 z "
         style="fill-rule:evenodd;stroke:#000000;stroke-width:1pt;stroke-opacity:1;fill:#000000;fill-opacity:1"
         transform="scale(0.4) rotate(180) translate(10,0)" />
    </marker>
    <marker
       inkscape:isstock="true"
       style="overflow:visible"
       id="marker10139"
       refX="0.0"
       refY="0.0"
       orient="auto"
       inkscape:stockid="Arrow1Mstart">
      <path
         transform="scale(0.4) translate(10,0)"
         style="fill-rule:evenodd;stroke:#000000;stroke-width:1pt;stroke-opacity:1;fill:#000000;fill-opacity:1"
         d="M 0.0,0.0 L 5.0,-5.0 L -12.5,0.0 L 5.0,5.0 L 0.0,0.0 z "
         id="path10137" />
    </marker>
    <marker
       inkscape:isstock="true"
       style="overflow:visible;"
       id="marker6781"
       refX="0.0"
       refY="0.0"
       orient="auto"
       inkscape:stockid="Arrow1Mend">
      <path
         transform="scale(0.4) rotate(180) translate(10,0)"
         style="fill-rule:evenodd;stroke:#000000;stroke-width:1pt;stroke-opacity:1;fill:#000000;fill-opacity:1"
         d="M 0.0,0.0 L 5.0,-5.0 L -12.5,0.0 L 5.0,5.0 L 0.0,0.0 z "
         id="path6779" />
    </marker>
    <marker
       inkscape:stockid="Arrow1Mstart"
       orient="auto"
       refY="0.0"
       refX="0.0"
       id="marker6627"
       style="overflow:visible"
       inkscape:isstock="true">
      <path
         id="path6625"
         d="M 0.0,0.0 L 5.0,-5.0 L -12.5,0.0 L 5.0,5.0 L 0.0,0.0 z "
         style="fill-rule:evenodd;stroke:#000000;stroke-width:1pt;stroke-opacity:1;fill:#000000;fill-opacity:1"
         transform="scale(0.4) translate(10,0)" />
    </marker>
    <marker
       inkscape:stockid="Arrow1Mend"
       orient="auto"
       refY="0.0"
       refX="0.0"
       id="marker3297"
       style="overflow:visible;"
       inkscape:isstock="true">
      <path
         id="path3295"
         d="M 0.0,0.0 L 5.0,-5.0 L -12.5,0.0 L 5.0,5.0 L 0.0,0.0 z "
         style="fill-rule:evenodd;stroke:#000000;stroke-width:1pt;stroke-opacity:1;fill:#000000;fill-opacity:1"
         transform="scale(0.4) rotate(180) translate(10,0)" />
    </marker>
    <marker
       inkscape:isstock="true"
       style="overflow:visible;"
       id="marker1183"
       refX="0.0"
       refY="0.0"
       orient="auto"
       inkscape:stockid="Arrow1Mend">
      <path
         transform="scale(0.4) rotate(180) translate(10,0)"
         style="fill-rule:evenodd;stroke:#000000;stroke-width:1pt;stroke-opacity:1;fill:#000000;fill-opacity:1"
         d="M 0.0,0.0 L 5.0,-5.0 L -12.5,0.0 L 5.0,5.0 L 0.0,0.0 z "
         id="path1181" />
    </marker>
    <marker
       inkscape:isstock="true"
       style="overflow:visible;"
       id="marker10529"
       refX="0.0"
       refY="0.0"
       orient="auto"
       inkscape:stockid="Arrow1Mend">
      <path
         transform="scale(0.4) rotate(180) translate(10,0)"
         style="fill-rule:evenodd;stroke:#000000;stroke-width:1pt;stroke-opacity:1;fill:#000000;fill-opacity:1"
         d="M 0.0,0.0 L 5.0,-5.0 L -12.5,0.0 L 5.0,5.0 L 0.0,0.0 z "
         id="path10527" />
    </marker>
    <marker
       inkscape:isstock="true"
       style="overflow:visible;"
       id="marker10115"
       refX="0.0"
       refY="0.0"
       orient="auto"
       inkscape:stockid="Arrow1Mend">
      <path
         transform="scale(0.4) rotate(180) translate(10,0)"
         style="fill-rule:evenodd;stroke:#000000;stroke-width:1pt;stroke-opacity:1;fill:#000000;fill-opacity:1"
         d="M 0.0,0.0 L 5.0,-5.0 L -12.5,0.0 L 5.0,5.0 L 0.0,0.0 z "
         id="path10113" />
    </marker>
    <marker
       inkscape:isstock="true"
       style="overflow:visible;"
       id="marker9581"
       refX="0.0"
       refY="0.0"
       orient="auto"
       inkscape:stockid="Arrow1Mend">
      <path
         transform="scale(0.4) rotate(180) translate(10,0)"
         style="fill-rule:evenodd;stroke:#000000;stroke-width:1pt;stroke-opacity:1;fill:#000000;fill-opacity:1"
         d="M 0.0,0.0 L 5.0,-5.0 L -12.5,0.0 L 5.0,5.0 L 0.0,0.0 z "
         id="path9579" />
    </marker>
    <marker
       inkscape:isstock="true"
       style="overflow:visible;"
       id="marker9299"
       refX="0.0"
       refY="0.0"
       orient="auto"
       inkscape:stockid="Arrow1Mend">
      <path
         transform="scale(0.4) rotate(180) translate(10,0)"
         style="fill-rule:evenodd;stroke:#000000;stroke-width:1pt;stroke-opacity:1;fill:#000000;fill-opacity:1"
         d="M 0.0,0.0 L 5.0,-5.0 L -12.5,0.0 L 5.0,5.0 L 0.0,0.0 z "
         id="path9297" />
    </marker>
    <marker
       inkscape:isstock="true"
       style="overflow:visible;"
       id="marker9047"
       refX="0.0"
       refY="0.0"
       orient="auto"
       inkscape:stockid="Arrow1Mend">
      <path
         transform="scale(0.4) rotate(180) translate(10,0)"
         style="fill-rule:evenodd;stroke:#000000;stroke-width:1pt;stroke-opacity:1;fill:#000000;fill-opacity:1"
         d="M 0.0,0.0 L 5.0,-5.0 L -12.5,0.0 L 5.0,5.0 L 0.0,0.0 z "
         id="path9045" />
    </marker>
    <marker
       inkscape:isstock="true"
       style="overflow:visible;"
       id="marker8461"
       refX="0.0"
       refY="0.0"
       orient="auto"
       inkscape:stockid="Arrow1Mend">
      <path
         transform="scale(0.4) rotate(180) translate(10,0)"
         style="fill-rule:evenodd;stroke:#000000;stroke-width:1pt;stroke-opacity:1;fill:#000000;fill-opacity:1"
         d="M 0.0,0.0 L 5.0,-5.0 L -12.5,0.0 L 5.0,5.0 L 0.0,0.0 z "
         id="path8459" />
    </marker>
    <marker
       inkscape:isstock="true"
       style="overflow:visible;"
       id="marker8265"
       refX="0.0"
       refY="0.0"
       orient="auto"
       inkscape:stockid="Arrow1Mend">
      <path
         transform="scale(0.4) rotate(180) translate(10,0)"
         style="fill-rule:evenodd;stroke:#000000;stroke-width:1pt;stroke-opacity:1;fill:#000000;fill-opacity:1"
         d="M 0.0,0.0 L 5.0,-5.0 L -12.5,0.0 L 5.0,5.0 L 0.0,0.0 z "
         id="path8263" />
    </marker>
    <marker
       inkscape:stockid="Arrow1Mend"
       orient="auto"
       refY="0.0"
       refX="0.0"
       id="marker5873"
       style="overflow:visible;"
       inkscape:isstock="true">
      <path
         id="path5871"
         d="M 0.0,0.0 L 5.0,-5.0 L -12.5,0.0 L 5.0,5.0 L 0.0,0.0 z "
         style="fill-rule:evenodd;stroke:#000000;stroke-width:1pt;stroke-opacity:1;fill:#000000;fill-opacity:1"
         transform="scale(0.4) rotate(180) translate(10,0)" />
    </marker>
    <marker
       inkscape:stockid="Arrow1Mend"
       orient="auto"
       refY="0.0"
       refX="0.0"
       id="marker5633"
       style="overflow:visible;"
       inkscape:isstock="true">
      <path
         id="path5631"
         d="M 0.0,0.0 L 5.0,-5.0 L -12.5,0.0 L 5.0,5.0 L 0.0,0.0 z "
         style="fill-rule:evenodd;stroke:#000000;stroke-width:1pt;stroke-opacity:1;fill:#000000;fill-opacity:1"
         transform="scale(0.4) rotate(180) translate(10,0)" />
    </marker>
    <marker
       inkscape:stockid="Arrow1Mend"
       orient="auto"
       refY="0.0"
       refX="0.0"
       id="marker5417"
       style="overflow:visible;"
       inkscape:isstock="true">
      <path
         id="path5415"
         d="M 0.0,0.0 L 5.0,-5.0 L -12.5,0.0 L 5.0,5.0 L 0.0,0.0 z "
         style="fill-rule:evenodd;stroke:#000000;stroke-width:1pt;stroke-opacity:1;fill:#000000;fill-opacity:1"
         transform="scale(0.4) rotate(180) translate(10,0)" />
    </marker>
    <marker
       inkscape:stockid="Arrow1Mend"
       orient="auto"
       refY="0.0"
       refX="0.0"
       id="marker5171"
       style="overflow:visible;"
       inkscape:isstock="true">
      <path
         id="path5169"
         d="M 0.0,0.0 L 5.0,-5.0 L -12.5,0.0 L 5.0,5.0 L 0.0,0.0 z "
         style="fill-rule:evenodd;stroke:#000000;stroke-width:1pt;stroke-opacity:1;fill:#000000;fill-opacity:1"
         transform="scale(0.4) rotate(180) translate(10,0)" />
    </marker>
    <marker
       inkscape:stockid="Arrow1Mend"
       orient="auto"
       refY="0.0"
       refX="0.0"
       id="marker1365"
       style="overflow:visible;"
       inkscape:isstock="true">
      <path
         id="path1363"
         d="M 0.0,0.0 L 5.0,-5.0 L -12.5,0.0 L 5.0,5.0 L 0.0,0.0 z "
         style="fill-rule:evenodd;stroke:#000000;stroke-width:1pt;stroke-opacity:1;fill:#000000;fill-opacity:1"
         transform="scale(0.4) rotate(180) translate(10,0)" />
    </marker>
    <marker
       inkscape:stockid="Arrow1Mend"
       orient="auto"
       refY="0.0"
       refX="0.0"
       id="marker3533"
       style="overflow:visible;"
       inkscape:isstock="true">
      <path
         id="path3531"
         d="M 0.0,0.0 L 5.0,-5.0 L -12.5,0.0 L 5.0,5.0 L 0.0,0.0 z "
         style="fill-rule:evenodd;stroke:#000000;stroke-width:1pt;stroke-opacity:1;fill:#000000;fill-opacity:1"
         transform="scale(0.4) rotate(180) translate(10,0)" />
    </marker>
    <marker
       inkscape:isstock="true"
       style="overflow:visible;"
       id="marker1928"
       refX="0.0"
       refY="0.0"
       orient="auto"
       inkscape:stockid="Arrow1Mend">
      <path
         transform="scale(0.4) rotate(180) translate(10,0)"
         style="fill-rule:evenodd;stroke:#000000;stroke-width:1pt;stroke-opacity:1;fill:#000000;fill-opacity:1"
         d="M 0.0,0.0 L 5.0,-5.0 L -12.5,0.0 L 5.0,5.0 L 0.0,0.0 z "
         id="path1926" />
    </marker>
    <marker
       inkscape:stockid="Arrow1Mend"
       orient="auto"
       refY="0.0"
       refX="0.0"
       id="marker1768"
       style="overflow:visible;"
       inkscape:isstock="true">
      <path
         id="path1766"
         d="M 0.0,0.0 L 5.0,-5.0 L -12.5,0.0 L 5.0,5.0 L 0.0,0.0 z "
         style="fill-rule:evenodd;stroke:#000000;stroke-width:1pt;stroke-opacity:1;fill:#000000;fill-opacity:1"
         transform="scale(0.4) rotate(180) translate(10,0)" />
    </marker>
    <marker
       inkscape:stockid="Arrow2Mstart"
       orient="auto"
       refY="0.0"
       refX="0.0"
       id="Arrow2Mstart"
       style="overflow:visible"
       inkscape:isstock="true">
      <path
         id="path923"
         style="fill-rule:evenodd;stroke-width:0.625;stroke-linejoin:round;stroke:#55efc4;stroke-opacity:1;fill:#55efc4;fill-opacity:1"
         d="M 8.7185878,4.0337352 L -2.2072895,0.016013256 L 8.7185884,-4.0017078 C 6.9730900,-1.6296469 6.9831476,1.6157441 8.7185878,4.0337352 z "
         transform="scale(0.6) translate(0,0)" />
    </marker>
    <inkscape:path-effect
       effect="simplify"
       id="path-effect1111"
       is_visible="true"
       steps="1"
       threshold="0.0142857"
       smooth_angles="360"
       helper_size="0"
       simplify_individual_paths="false"
       simplify_just_coalesce="false"
       simplifyindividualpaths="false"
       simplifyJustCoalesce="false" />
    <inkscape:path-effect
       effect="simplify"
       id="path-effect1107"
       is_visible="true"
       steps="1"
       threshold="0.0142857"
       smooth_angles="360"
       helper_size="0"
       simplify_individual_paths="false"
       simplify_just_coalesce="false"
       simplifyindividualpaths="false"
       simplifyJustCoalesce="false" />
    <inkscape:path-effect
       effect="simplify"
       id="path-effect1103"
       is_visible="true"
       steps="1"
       threshold="0.0142857"
       smooth_angles="360"
       helper_size="0"
       simplify_individual_paths="false"
       simplify_just_coalesce="false"
       simplifyindividualpaths="false"
       simplifyJustCoalesce="false" />
    <inkscape:path-effect
       effect="simplify"
       id="path-effect1099"
       is_visible="true"
       steps="1"
       threshold="0.0142857"
       smooth_angles="360"
       helper_size="0"
       simplify_individual_paths="false"
       simplify_just_coalesce="false"
       simplifyindividualpaths="false"
       simplifyJustCoalesce="false" />
    <inkscape:path-effect
       effect="simplify"
       id="path-effect1095"
       is_visible="true"
       steps="1"
       threshold="0.00961538"
       smooth_angles="360"
       helper_size="0"
       simplify_individual_paths="false"
       simplify_just_coalesce="false"
       simplifyindividualpaths="false"
       simplifyJustCoalesce="false" />
    <inkscape:path-effect
       effect="simplify"
       id="path-effect1087"
       is_visible="true"
       steps="1"
       threshold="0.075"
       smooth_angles="360"
       helper_size="0"
       simplify_individual_paths="false"
       simplify_just_coalesce="false"
       simplifyindividualpaths="false"
       simplifyJustCoalesce="false" />
    <inkscape:path-effect
       effect="simplify"
       id="path-effect1083"
       is_visible="true"
       steps="1"
       threshold="0.075"
       smooth_angles="360"
       helper_size="0"
       simplify_individual_paths="false"
       simplify_just_coalesce="false"
       simplifyindividualpaths="false"
       simplifyJustCoalesce="false" />
    <inkscape:path-effect
       effect="simplify"
       id="path-effect1079"
       is_visible="true"
       steps="1"
       threshold="0.135714"
       smooth_angles="360"
       helper_size="0"
       simplify_individual_paths="false"
       simplify_just_coalesce="false"
       simplifyindividualpaths="false"
       simplifyJustCoalesce="false" />
    <inkscape:path-effect
       effect="simplify"
       id="path-effect1075"
       is_visible="true"
       steps="1"
       threshold="0.5"
       smooth_angles="360"
       helper_size="0"
       simplify_individual_paths="false"
       simplify_just_coalesce="false"
       simplifyindividualpaths="false"
       simplifyJustCoalesce="false" />
    <inkscape:path-effect
       effect="simplify"
       id="path-effect1071"
       is_visible="true"
       steps="1"
       threshold="0.5"
       smooth_angles="360"
       helper_size="0"
       simplify_individual_paths="false"
       simplify_just_coalesce="false"
       simplifyindividualpaths="false"
       simplifyJustCoalesce="false" />
    <inkscape:path-effect
       effect="simplify"
       id="path-effect1067"
       is_visible="true"
       steps="1"
       threshold="0.021875"
       smooth_angles="360"
       helper_size="0"
       simplify_individual_paths="false"
       simplify_just_coalesce="false"
       simplifyindividualpaths="false"
       simplifyJustCoalesce="false" />
    <inkscape:path-effect
       effect="simplify"
       id="path-effect1051"
       is_visible="true"
       steps="1"
       threshold="0.021875"
       smooth_angles="360"
       helper_size="0"
       simplify_individual_paths="false"
       simplify_just_coalesce="false"
       simplifyindividualpaths="false"
       simplifyJustCoalesce="false" />
    <inkscape:path-effect
       effect="simplify"
       id="path-effect1047"
       is_visible="true"
       steps="1"
       threshold="0.021875"
       smooth_angles="360"
       helper_size="0"
       simplify_individual_paths="false"
       simplify_just_coalesce="false"
       simplifyindividualpaths="false"
       simplifyJustCoalesce="false" />
    <inkscape:path-effect
       effect="simplify"
       id="path-effect1043"
       is_visible="true"
       steps="1"
       threshold="0.021875"
       smooth_angles="360"
       helper_size="0"
       simplify_individual_paths="false"
       simplify_just_coalesce="false"
       simplifyindividualpaths="false"
       simplifyJustCoalesce="false" />
    <inkscape:path-effect
       effect="simplify"
       id="path-effect1039"
       is_visible="true"
       steps="1"
       threshold="0.021875"
       smooth_angles="360"
       helper_size="0"
       simplify_individual_paths="false"
       simplify_just_coalesce="false"
       simplifyindividualpaths="false"
       simplifyJustCoalesce="false" />
    <inkscape:path-effect
       effect="simplify"
       id="path-effect1035"
       is_visible="true"
       steps="1"
       threshold="0.0202394"
       smooth_angles="360"
       helper_size="0"
       simplify_individual_paths="false"
       simplify_just_coalesce="false"
       simplifyindividualpaths="false"
       simplifyJustCoalesce="false" />
    <inkscape:path-effect
       effect="simplify"
       id="path-effect1031"
       is_visible="true"
       steps="1"
       threshold="0.0202394"
       smooth_angles="360"
       helper_size="0"
       simplify_individual_paths="false"
       simplify_just_coalesce="false"
       simplifyindividualpaths="false"
       simplifyJustCoalesce="false" />
    <inkscape:path-effect
       effect="spiro"
       id="path-effect1027"
       is_visible="true" />
    <inkscape:path-effect
       effect="simplify"
       id="path-effect1025"
       is_visible="true"
       steps="1"
       threshold="0.0202394"
       smooth_angles="360"
       helper_size="0"
       simplify_individual_paths="false"
       simplify_just_coalesce="false"
       simplifyindividualpaths="false"
       simplifyJustCoalesce="false" />
    <inkscape:path-effect
       effect="simplify"
       id="path-effect1015"
       is_visible="true"
       steps="1"
       threshold="0.0202394"
       smooth_angles="360"
       helper_size="0"
       simplify_individual_paths="false"
       simplify_just_coalesce="false"
       simplifyindividualpaths="false"
       simplifyJustCoalesce="false" />
    <marker
       inkscape:stockid="Arrow2Mend"
       orient="auto"
       refY="0.0"
       refX="0.0"
       id="Arrow2Mend"
       style="overflow:visible;"
       inkscape:isstock="true">
      <path
         id="path995"
         style="fill-rule:evenodd;stroke-width:0.625;stroke-linejoin:round;stroke:#55efc4;stroke-opacity:1;fill:#55efc4;fill-opacity:1"
         d="M 8.7185878,4.0337352 L -2.2072895,0.016013256 L 8.7185884,-4.0017078 C 6.9730900,-1.6296469 6.9831476,1.6157441 8.7185878,4.0337352 z "
         transform="scale(0.6) rotate(180) translate(0,0)" />
    </marker>
    <linearGradient
       id="linearGradient3354-9">
      <stop
         offset="0"
         style="stop-color:#959595;stop-opacity:1"
         id="stop3356-9" />
      <stop
         offset="1"
         style="stop-color:#cccccc;stop-opacity:1"
         id="stop3358-9" />
    </linearGradient>
    <linearGradient
       gradientTransform="matrix(1.1060606,0,0,1.1060606,642.17936,188.69781)"
       gradientUnits="userSpaceOnUse"
       xlink:href="#linearGradient3354-9"
       id="linearGradient3003"
       y2="-32.881535"
       x2="-560.61346"
       y1="-40.681377"
       x1="-403.07309" />
    <inkscape:perspective
       id="perspective10"
       inkscape:persp3d-origin="372.04724 : 350.78739 : 1"
       inkscape:vp_z="744.09448 : 526.18109 : 1"
       inkscape:vp_y="0 : 1000 : 0"
       inkscape:vp_x="0 : 526.18109 : 1"
       sodipodi:type="inkscape:persp3d" />
    <inkscape:perspective
       sodipodi:type="inkscape:persp3d"
       inkscape:vp_x="0 : 0.5 : 1"
       inkscape:vp_y="0 : 1000 : 0"
       inkscape:vp_z="1 : 0.5 : 1"
       inkscape:persp3d-origin="0.5 : 0.33333333 : 1"
       id="perspective2824" />
    <inkscape:perspective
       sodipodi:type="inkscape:persp3d"
       inkscape:vp_x="0 : 0.5 : 1"
       inkscape:vp_y="0 : 1000 : 0"
       inkscape:vp_z="1 : 0.5 : 1"
       inkscape:persp3d-origin="0.5 : 0.33333333 : 1"
       id="perspective2840" />
    <inkscape:perspective
       sodipodi:type="inkscape:persp3d"
       inkscape:vp_x="0 : 0.5 : 1"
       inkscape:vp_y="0 : 1000 : 0"
       inkscape:vp_z="1 : 0.5 : 1"
       inkscape:persp3d-origin="0.5 : 0.33333333 : 1"
       id="perspective2878" />
    <inkscape:perspective
       sodipodi:type="inkscape:persp3d"
       inkscape:vp_x="0 : 0.5 : 1"
       inkscape:vp_y="0 : 1000 : 0"
       inkscape:vp_z="1 : 0.5 : 1"
       inkscape:persp3d-origin="0.5 : 0.33333333 : 1"
       id="perspective2894" />
    <inkscape:perspective
       sodipodi:type="inkscape:persp3d"
       inkscape:vp_x="0 : 0.5 : 1"
       inkscape:vp_y="0 : 1000 : 0"
       inkscape:vp_z="1 : 0.5 : 1"
       inkscape:persp3d-origin="0.5 : 0.33333333 : 1"
       id="perspective2910" />
    <inkscape:perspective
       sodipodi:type="inkscape:persp3d"
       inkscape:vp_x="0 : 0.5 : 1"
       inkscape:vp_y="0 : 1000 : 0"
       inkscape:vp_z="1 : 0.5 : 1"
       inkscape:persp3d-origin="0.5 : 0.33333333 : 1"
       id="perspective2926" />
    <inkscape:perspective
       sodipodi:type="inkscape:persp3d"
       inkscape:vp_x="0 : 0.5 : 1"
       inkscape:vp_y="0 : 1000 : 0"
       inkscape:vp_z="1 : 0.5 : 1"
       inkscape:persp3d-origin="0.5 : 0.33333333 : 1"
       id="perspective2976" />
    <inkscape:perspective
       sodipodi:type="inkscape:persp3d"
       inkscape:vp_x="0 : 0.5 : 1"
       inkscape:vp_y="0 : 1000 : 0"
       inkscape:vp_z="1 : 0.5 : 1"
       inkscape:persp3d-origin="0.5 : 0.33333333 : 1"
       id="perspective3020" />
    <inkscape:perspective
       sodipodi:type="inkscape:persp3d"
       inkscape:vp_x="0 : 0.5 : 1"
       inkscape:vp_y="0 : 1000 : 0"
       inkscape:vp_z="1 : 0.5 : 1"
       inkscape:persp3d-origin="0.5 : 0.33333333 : 1"
       id="perspective3036" />
    <inkscape:perspective
       sodipodi:type="inkscape:persp3d"
       inkscape:vp_x="0 : 0.5 : 1"
       inkscape:vp_y="0 : 1000 : 0"
       inkscape:vp_z="1 : 0.5 : 1"
       inkscape:persp3d-origin="0.5 : 0.33333333 : 1"
       id="perspective3052" />
    <inkscape:perspective
       sodipodi:type="inkscape:persp3d"
       inkscape:vp_x="0 : 0.5 : 1"
       inkscape:vp_y="0 : 1000 : 0"
       inkscape:vp_z="1 : 0.5 : 1"
       inkscape:persp3d-origin="0.5 : 0.33333333 : 1"
       id="perspective3866" />
    <clipPath
       id="clipPath8">
      <path
         id="path10"
         d="m 76,2 0,46 -22,0 0,23 -18.419263,0 c -0.07818,0.665694 -0.141485,1.332869 -0.205737,2 -1.151162,12.530963 1.036422,24.087546 6.0625,33.96875 L 43.125,110 c 1.011403,1.81678 2.191241,3.52297 3.4375,5.1875 1.244725,1.66248 1.685716,2.58262 2.46875,3.6875 C 62.319911,133.81083 82.129473,141 105,141 155.64836,141 198.63299,118.56201 217.65625,68.15625 231.15302,69.54122 244.09968,66.080358 250,54.5625 240.60137,49.138835 228.52163,50.877226 221.5625,54.375 L 240,2 168,48 145,48 145,2 z" />
    </clipPath>
  </defs>
  <metadata
     id="metadata36">
    <rdf:RDF>
      <cc:Work
         rdf:about="">
        <dc:format>image/svg+xml</dc:format>
        <dc:type
           rdf:resource="http://purl.org/dc/dcmitype/StillImage" />
        <dc:title />
      </cc:Work>
    </rdf:RDF>
  </metadata>
  <g
     transform="translate(0,-177)"
     id="layer1">
    <g
       id="g1748"
       transform="translate(17.520304,-7.6192373)">
      <g
         transform="translate(-10.583333)"
         id="g1500">
        <g
           id="g1905"
           transform="matrix(2.1058924,0,0,2.1058924,-5.0281848,-213.25494)">
          <g
             transform="matrix(0.81106483,0,0,0.81106483,34.099003,69.986909)"
             id="g1353">
            <g
               id="g2307"
               transform="matrix(0.32621724,0,0,0.32621724,-17.910504,156.94616)">
              <g
                 id="color">
                <polyline
                   id="polyline2257"
                   points="56,48.8213 56,10.9583 15.0372,10.9583 15.0372,41.1106 15.0372,52.2652 54.4639,50.9166"
                   style="fill:#9b9b9a;stroke:none" />
                <polyline
                   id="polyline2259"
                   points="56,48.8213 56,10.9583 16,10.9583 16,41.1106"
                   stroke-miterlimit="10"
                   style="fill:#9b9b9a;stroke:none;stroke-width:2;stroke-linecap:round;stroke-linejoin:round;stroke-miterlimit:10" />
                <polygon
                   id="polygon2261"
                   points="13.8387,45.6521 14.6533,56.4415 45.8422,52.277 49.1154,51.84 53,51.3213 47.9719,38.1494 "
                   stroke-miterlimit="10"
                   style="fill:#d0cfce;stroke:none;stroke-width:2;stroke-linecap:round;stroke-linejoin:round;stroke-miterlimit:10" />
              </g>
              <g
                 id="hair" />
              <g
                 id="skin" />
              <g
                 id="skin-shadow" />
              <g
                 id="line">
                <polyline
                   id="polyline2267"
                   points="56,48.8213 56,10.9583 16,10.9583 16,41.1106"
                   stroke-miterlimit="10"
                   style="fill:none;stroke:#000000;stroke-width:2;stroke-linecap:round;stroke-linejoin:round;stroke-miterlimit:10" />
                <polygon
                   id="polygon2269"
                   points="13.8387,45.6521 14.6533,56.4415 45.8422,52.277 49.1154,51.84 53,51.3213 47.9719,38.1494 "
                   stroke-miterlimit="10"
                   style="fill:none;stroke:#000000;stroke-width:2;stroke-linecap:round;stroke-linejoin:round;stroke-miterlimit:10" />
                <line
                   id="line2271"
                   stroke-miterlimit="10"
                   y2="16"
                   y1="16"
                   x2="36"
                   x1="20.621799"
                   style="fill:none;stroke:#000000;stroke-width:2;stroke-linecap:round;stroke-linejoin:round;stroke-miterlimit:10" />
                <line
                   id="line2273"
                   stroke-miterlimit="10"
                   y2="21.327999"
                   y1="21.327999"
                   x2="51.660198"
                   x1="20.621799"
                   style="fill:none;stroke:#000000;stroke-width:2;stroke-linecap:round;stroke-linejoin:round;stroke-miterlimit:10" />
                <line
                   id="line2275"
                   stroke-miterlimit="10"
                   y2="32.220501"
                   y1="32.220501"
                   x2="51.660198"
                   x1="20.621799"
                   style="fill:none;stroke:#000000;stroke-width:2;stroke-linecap:round;stroke-linejoin:round;stroke-miterlimit:10" />
                <line
                   id="line2277"
                   stroke-miterlimit="10"
                   y2="37.627399"
                   y1="37.627399"
                   x2="33.3927"
                   x1="20.621799"
                   style="fill:none;stroke:#000000;stroke-width:2;stroke-linecap:round;stroke-linejoin:round;stroke-miterlimit:10" />
                <line
                   id="line2279"
                   stroke-miterlimit="10"
                   y2="26.8137"
                   y1="26.8137"
                   x2="51.660198"
                   x1="20.621799"
                   style="fill:none;stroke:#000000;stroke-width:2;stroke-linecap:round;stroke-linejoin:round;stroke-miterlimit:10" />
                <path
                   id="path2281"
                   d="m 56,48.3213 c 0,1.6569 -1.3431,3 -3,3"
                   stroke-miterlimit="10"
                   inkscape:connector-curvature="0"
                   style="fill:none;stroke:#000000;stroke-width:2;stroke-linecap:round;stroke-linejoin:round;stroke-miterlimit:10" />
              </g>
            </g>
          </g>
        </g>
        <g
           id="g2299"
           transform="matrix(0.38232355,0,0,0.38232355,77.878884,241.80739)">
          <g
             id="g2287">
            <polygon
               points="5,32.2554 5,37.8171 55.8191,37.8171 45.4234,47.4587 49.2124,51.5343 67,35.0363 49.2124,18.5382 45.4234,22.6138 55.8191,32.2554 "
               stroke-miterlimit="10"
               id="polygon2285"
               style="fill:#3f3f3f;stroke:none;stroke-width:2;stroke-linecap:round;stroke-linejoin:round;stroke-miterlimit:10" />
          </g>
          <g
             id="g2289" />
          <g
             id="g2291" />
          <g
             id="g2293" />
          <g
             id="g2297">
            <polygon
               points="5,32.2554 5,37.8171 55.8191,37.8171 45.4234,47.4587 49.2124,51.5343 67,35.0363 49.2124,18.5382 45.4234,22.6138 55.8191,32.2554 "
               stroke-miterlimit="10"
               id="polygon2295"
               style="fill:none;stroke:#000000;stroke-width:2;stroke-linecap:round;stroke-linejoin:round;stroke-miterlimit:10" />
          </g>
        </g>
        <g
           id="g2664"
           transform="matrix(0.57176305,0,0,0.57176305,-21.481406,152.7435)">
          <g
             transform="matrix(0.99498478,0,0,0.99498478,99.251697,154.35088)"
             id="g2634">
            <g
               id="color-9">
              <rect
                 style="fill:#ffffff;stroke:none"
                 x="16.4055"
                 y="11.3783"
                 width="39.564499"
                 height="49.065899"
                 id="rect2563" />
            </g>
            <g
               id="hair-5" />
            <g
               id="skin-1" />
            <g
               id="skin-shadow-7" />
            <g
               id="line-4">
              <polyline
                 style="fill:none;stroke:#000000;stroke-width:2.02060008;stroke-linecap:round;stroke-linejoin:round;stroke-miterlimit:10"
                 stroke-miterlimit="10"
                 points="55.3215,44.228 55.3215,59.875 16.3215,59.875 16.3215,11.875 55.3215,11.875 55.3215,20.3309"
                 id="polyline2601" />
            </g>
          </g>
          <g
             transform="matrix(0.68892722,0,0,0.68892722,105.89626,170.84269)"
             id="g1991">
            <g
               id="hair-52">
              <path
                 style="fill:#f4aa41"
                 inkscape:connector-curvature="0"
                 d="m 44.6,39.6 c 1.3,0.5 2.7,0.3 3.7,-0.5 0.8,-0.6 1.3,-1.5 1.5,-2.5 0.9,-0.5 1.6,-1.3 1.9,-2.4 0.3,-1.2 0,-2.4 -0.7,-3.4 1,-1 1.5,-2.3 1.3,-3.7 C 52.1,26 51.5,25 50.7,24.4 51.7,23.2 52,21.6 51.4,20.1 50.9,19.1 50.1,18.4 49,18 49.1,16.7 48.6,15.4 47.5,14.7 46.2,13.9 44.6,14 43.4,15 c -0.5,-1.3 -1.6,-2.2 -3,-2.4 -1.3,-0.1 -2.5,0.4 -3.3,1.4 0,0 -3.2,-3.5 -7.1,0.1 0,0 -5,-2.1 -6.5,2.9 0,0 -4.2,1.1 -2.2,5.9 0,0 -2.9,3 -0.8,6.5 0,0 -2.1,4.2 1.8,5.7 -0.1,1 0.2,1.9 0.7,2.7 0.9,1.1 2.3,1.7 3.7,1.5"
                 id="path1946" />
            </g>
            <g
               id="skin-27">
              <path
                 style="fill:#fcea2b"
                 inkscape:connector-curvature="0"
                 d="m 44.5,21.8 c 1.7,2.7 2.7,5.9 2.6,9.1 0,7.7 -4.9,14 -11,14 -6.1,0 -11,-6.3 -11,-14 0,-2.7 0.6,-5.4 1.9,-7.8 l 3.2,1.3 c 1.9,-0.9 3.9,-1.2 6,-1.1 1.9,0.2 3,0.8 4.8,0.4 1.3,-0.3 2.5,-0.9 3.5,-1.9 z"
                 id="path1949" />
            </g>
            <g
               id="color-3">
              <path
                 style="fill:#92d3f5"
                 inkscape:connector-curvature="0"
                 d="m 17,61 v -4 c 0,-5 5,-9 10,-9 6,5 12,5 18,0 5,0 10,4 10,9 v 4"
                 id="path1952" />
            </g>
            <g
               id="line-79">
              <g
                 id="g1967">
                <path
                   style="fill:none;stroke:#000000;stroke-width:2;stroke-linecap:round;stroke-linejoin:round"
                   inkscape:connector-curvature="0"
                   d="m 17,59.9 v -3 c 0,-5 5,-9 10,-9 6,5 12,5 18,0 5,0 10,4 10,9 v 3"
                   id="path1955" />
                <path
                   inkscape:connector-curvature="0"
                   d="m 42,29.9 c 0,1.1 -0.9,2 -2,2 -1.1,0 -2,-0.9 -2,-2 0,-1.1 0.9,-2 2,-2 1.1,0 2,0.9 2,2"
                   id="path1957" />
                <path
                   inkscape:connector-curvature="0"
                   d="m 34,29.9 c 0,1.1 -0.9,2 -2,2 -1.1,0 -2,-0.9 -2,-2 0,-1.1 0.9,-2 2,-2 1.1,0 2,0.9 2,2"
                   id="path1959" />
                <path
                   style="fill:none;stroke:#000000;stroke-width:2;stroke-linecap:round;stroke-linejoin:round"
                   inkscape:connector-curvature="0"
                   d="m 33,38.1 c 1.9,1 4.1,1 6,0"
                   id="path1961" />
                <path
                   style="fill:none;stroke:#000000;stroke-width:2;stroke-linecap:round;stroke-linejoin:round"
                   inkscape:connector-curvature="0"
                   d="M 28.8,41.5 C 26.3,38.6 25,34.8 25.1,31 c 0.1,-2.8 0.8,-5.5 2.1,-8 0.5,0.9 1.4,1.5 2.4,1.6 1.3,0 2.5,-0.9 2.8,-2.1 1.1,1.4 3,1.7 4.4,0.6 0.3,-0.2 0.5,-0.4 0.7,-0.7 1.5,1.8 4.1,2.1 5.9,0.6 0.4,-0.4 0.8,-0.8 1.1,-1.3 1.6,2.9 2.5,6.1 2.7,9.4 0,8 -5.1,14 -11.1,14 -2.8,-0.1 -5.5,-1.4 -7.3,-3.6 z"
                   id="path1963" />
                <path
                   style="fill:none;stroke:#000000;stroke-width:2;stroke-linejoin:round"
                   inkscape:connector-curvature="0"
                   d="m 44.6,39.6 c 1.3,0.5 2.7,0.3 3.7,-0.5 0.8,-0.6 1.3,-1.5 1.5,-2.5 0.9,-0.5 1.6,-1.3 1.9,-2.4 0.3,-1.2 0,-2.4 -0.7,-3.4 1,-1 1.5,-2.3 1.3,-3.7 C 52.1,26 51.5,25 50.7,24.4 51.7,23.2 52,21.6 51.4,20.1 50.9,19.1 50.1,18.4 49,18 49.1,16.7 48.6,15.4 47.5,14.7 46.2,13.9 44.6,14 43.4,15 c -0.5,-1.3 -1.6,-2.2 -3,-2.4 -1.3,-0.1 -2.5,0.4 -3.3,1.4 0,0 -3.2,-3.5 -7.1,0.1 0,0 -4.7,-3.1 -6.1,2.6 0,0 -5.4,0.8 -2.6,6.2 0,0 -2.9,3 -0.8,6.5 0,0 -2.1,4.2 1.8,5.7 -0.1,1 0.2,1.9 0.7,2.7 0.9,1.1 2.3,1.7 3.7,1.5"
                   id="path1965" />
              </g>
            </g>
          </g>
          <path
             inkscape:connector-curvature="0"
             id="path2636"
             d="m 154.29574,174.57982 v 23.77725"
             style="fill:none;stroke:#000000;stroke-width:1.984375;stroke-linecap:butt;stroke-linejoin:miter;stroke-miterlimit:4;stroke-dasharray:none;stroke-opacity:1" />
        </g>
        <text
           xml:space="preserve"
           style="font-style:normal;font-weight:normal;font-size:5.29166651px;line-height:1.25;font-family:sans-serif;letter-spacing:0px;word-spacing:0px;fill:#000000;fill-opacity:1;stroke:none;stroke-width:0.26458332"
           x="39.777225"
           y="294.19485"
           id="text2668"><tspan
             sodipodi:role="line"
             id="tspan2666"
             x="39.777225"
             y="294.19485"
             style="font-weight:bold;stroke-width:0.26458332">John Smith</tspan></text>
        <text
           id="text2672"
           y="195.76984"
           x="48.765049"
           style="font-style:normal;font-weight:normal;font-size:5.29166651px;line-height:1.25;font-family:sans-serif;letter-spacing:0px;word-spacing:0px;fill:#000000;fill-opacity:1;stroke:none;stroke-width:0.26458332"
           xml:space="preserve"><tspan
             style="font-weight:bold;stroke-width:0.26458332"
             y="195.76984"
             x="48.765049"
             id="tspan2670"
             sodipodi:role="line">keys</tspan></text>
        <path
           style="fill:none;stroke:#000000;stroke-width:1.32291663;stroke-linecap:butt;stroke-linejoin:miter;stroke-miterlimit:4;stroke-dasharray:none;stroke-opacity:1"
           d="M 39.622975,202.7776 H 246.50308"
           id="path2674"
           inkscape:connector-curvature="0" />
        <text
           xml:space="preserve"
           style="font-style:normal;font-weight:normal;font-size:5.29166651px;line-height:1.25;font-family:sans-serif;letter-spacing:0px;word-spacing:0px;fill:#000000;fill-opacity:1;stroke:none;stroke-width:0.26458332"
           x="119.93455"
           y="195.76984"
           id="text2678"><tspan
             sodipodi:role="line"
             id="tspan2676"
             x="119.93455"
             y="195.76984"
             style="font-weight:bold;stroke-width:0.26458332">hash function</tspan></text>
        <rect
           style="opacity:1;fill:#55efc4;fill-opacity:1;stroke:#000000;stroke-width:1.32291663;stroke-linejoin:miter;stroke-miterlimit:4;stroke-dasharray:none;stroke-dashoffset:0;stroke-opacity:1"
           id="rect2680"
           width="47.495655"
           height="76.849579"
           x="116.63249"
           y="212.36806"
           rx="9.1337795"
           ry="9.1337795" />
        <text
           xml:space="preserve"
           style="font-style:normal;font-weight:normal;font-size:5.29166651px;line-height:1.25;font-family:sans-serif;letter-spacing:0px;word-spacing:0px;fill:#000000;fill-opacity:1;stroke:none;stroke-width:0.26458332"
           x="190.35266"
           y="258.49365"
           id="text2684"><tspan
             sodipodi:role="line"
             id="tspan2682"
             x="190.35266"
             y="263.17554"
             style="stroke-width:0.26458332" /></text>
        <g
           transform="matrix(0.38232355,0,0,0.38232355,174.07282,241.80739)"
           id="g2700">
          <g
             id="g2688">
            <polygon
               style="fill:#3f3f3f;stroke:none;stroke-width:2;stroke-linecap:round;stroke-linejoin:round;stroke-miterlimit:10"
               id="polygon2686"
               stroke-miterlimit="10"
               points="45.4234,22.6138 55.8191,32.2554 5,32.2554 5,37.8171 55.8191,37.8171 45.4234,47.4587 49.2124,51.5343 67,35.0363 49.2124,18.5382 " />
          </g>
          <g
             id="g2690" />
          <g
             id="g2692" />
          <g
             id="g2694" />
          <g
             id="g2698">
            <polygon
               style="fill:none;stroke:#000000;stroke-width:2;stroke-linecap:round;stroke-linejoin:round;stroke-miterlimit:10"
               id="polygon2696"
               stroke-miterlimit="10"
               points="45.4234,22.6138 55.8191,32.2554 5,32.2554 5,37.8171 55.8191,37.8171 45.4234,47.4587 49.2124,51.5343 67,35.0363 49.2124,18.5382 " />
          </g>
        </g>
        <text
           id="text2704"
           y="195.76984"
           x="207.28397"
           style="font-style:normal;font-weight:normal;font-size:5.29166651px;line-height:1.25;font-family:sans-serif;letter-spacing:0px;word-spacing:0px;fill:#000000;fill-opacity:1;stroke:none;stroke-width:0.26458332"
           xml:space="preserve"><tspan
             style="font-weight:bold;stroke-width:0.26458332"
             y="195.76984"
             x="207.28397"
             id="tspan2702"
             sodipodi:role="line">hash values</tspan></text>
        <rect
           style="opacity:1;fill:none;fill-opacity:1;stroke:#000000;stroke-width:1.32291663;stroke-linejoin:miter;stroke-miterlimit:4;stroke-dasharray:none;stroke-dashoffset:0;stroke-opacity:1"
           id="rect2706"
           width="27.140312"
           height="77.637131"
           x="211.54478"
           y="211.97427"
           rx="6.3859606"
           ry="9.1337872" />
        <path
           style="fill:none;stroke:#000000;stroke-width:1.33372426;stroke-linecap:butt;stroke-linejoin:miter;stroke-miterlimit:4;stroke-dasharray:none;stroke-opacity:1"
           d="m 211.88958,227.14888 h 26.45834"
           id="path2708"
           inkscape:connector-curvature="0" />
        <path
           inkscape:connector-curvature="0"
           id="path2710"
           d="m 211.88958,243.02389 h 26.45834"
           style="fill:none;stroke:#000000;stroke-width:1.33372426;stroke-linecap:butt;stroke-linejoin:miter;stroke-miterlimit:4;stroke-dasharray:none;stroke-opacity:1" />
        <path
           style="fill:none;stroke:#000000;stroke-width:1.33372426;stroke-linecap:butt;stroke-linejoin:miter;stroke-miterlimit:4;stroke-dasharray:none;stroke-opacity:1"
           d="m 211.88958,258.8989 h 26.45834"
           id="path2712"
           inkscape:connector-curvature="0" />
        <path
           inkscape:connector-curvature="0"
           id="path2714"
           d="m 211.88958,274.77391 h 26.45834"
           style="fill:none;stroke:#000000;stroke-width:1.33372426;stroke-linecap:butt;stroke-linejoin:miter;stroke-miterlimit:4;stroke-dasharray:none;stroke-opacity:1" />
        <text
           xml:space="preserve"
           style="font-style:normal;font-weight:normal;font-size:5.29166651px;line-height:1.25;font-family:sans-serif;letter-spacing:0px;word-spacing:0px;fill:#000000;fill-opacity:1;stroke:none;stroke-width:0.26458332"
           x="222.09445"
           y="268.5408"
           id="text2718"><tspan
             sodipodi:role="line"
             id="tspan2716"
             x="222.09445"
             y="268.5408"
             style="font-weight:bold;stroke-width:0.26458332">...</tspan></text>
        <text
           id="text2733"
           y="284.41577"
           x="221.3206"
           style="font-style:normal;font-weight:normal;font-size:5.29166651px;line-height:1.25;font-family:sans-serif;letter-spacing:0px;word-spacing:0px;fill:#000000;fill-opacity:1;stroke:none;stroke-width:0.26458332"
           xml:space="preserve"><tspan
             style="font-weight:bold;stroke-width:0.26458332"
             y="284.41577"
             x="221.3206"
             id="tspan2731"
             sodipodi:role="line">15</tspan></text>
        <text
           xml:space="preserve"
           style="font-style:normal;font-weight:normal;font-size:5.29166651px;line-height:1.25;font-family:sans-serif;letter-spacing:0px;word-spacing:0px;fill:#000000;fill-opacity:1;stroke:none;stroke-width:0.26458332"
           x="223.29845"
           y="252.66582"
           id="text2737"><tspan
             sodipodi:role="line"
             id="tspan2735"
             x="223.29845"
             y="252.66582"
             style="font-weight:bold;stroke-width:0.26458332">2</tspan></text>
        <text
           id="text2741"
           y="236.7908"
           x="223.29845"
           style="font-style:normal;font-weight:normal;font-size:5.29166651px;line-height:1.25;font-family:sans-serif;letter-spacing:0px;word-spacing:0px;fill:#000000;fill-opacity:1;stroke:none;stroke-width:0.26458332"
           xml:space="preserve"><tspan
             style="font-weight:bold;stroke-width:0.26458332"
             y="236.7908"
             x="223.29845"
             id="tspan2739"
             sodipodi:role="line">1</tspan></text>
        <text
           xml:space="preserve"
           style="font-style:normal;font-weight:normal;font-size:5.29166651px;line-height:1.25;font-family:sans-serif;letter-spacing:0px;word-spacing:0px;fill:#000000;fill-opacity:1;stroke:none;stroke-width:0.26458332"
           x="223.29845"
           y="220.91579"
           id="text2745"><tspan
             sodipodi:role="line"
             id="tspan2743"
             x="223.29845"
             y="220.91579"
             style="font-weight:bold;stroke-width:0.26458332">0</tspan></text>
      </g>
    </g>
  </g>
</svg>
